<svg width="12" height="12" viewBox="0 0 12 12" fill="none" xmlns="http://www.w3.org/2000/svg">
<path fill-rule="evenodd" clip-rule="evenodd" d="M2.2 6C2.2 3.90118 3.8993 2.2 5.995 2.2C8.09804 2.2 9.8 3.90352 9.8 6C9.8 8.09648 8.09804 9.8 5.995 9.8C3.8993 9.8 2.2 8.09882 2.2 6ZM5.995 1C3.235 1 1 3.24 1 6C1 8.76 3.235 11 5.995 11C8.76 11 11 8.76 11 6C11 3.24 8.76 1 5.995 1ZM5.60001 3.5C5.43433 3.5 5.30001 3.63431 5.30001 3.8V5.83152C5.30001 6.10086 5.40866 6.35882 5.60137 6.54699L7.24194 8.14898C7.36049 8.26473 7.55042 8.26247 7.66618 8.14393L8.08536 7.71464C8.20111 7.5961 8.19885 7.40616 8.08031 7.29041L6.59042 5.83556C6.53261 5.77911 6.50001 5.70172 6.50001 5.62092V3.8C6.50001 3.63431 6.3657 3.5 6.20001 3.5H5.60001Z" fill="#F89500"/>
</svg>
