<svg width="34" height="26" viewBox="0 0 34 26" fill="none" xmlns="http://www.w3.org/2000/svg">
<rect x="7.5" width="5" height="5" rx="1" fill="#D9D9D9"/>
<rect x="7.5" y="7" width="5" height="5" rx="1" fill="#002CFB"/>
<rect x="0.5" y="7" width="5" height="5" rx="1" fill="#D9D9D9"/>
<rect x="0.5" y="14" width="5" height="5" rx="1" fill="#D9D9D9"/>
<rect x="0.5" y="21" width="5" height="5" rx="1" fill="#D9D9D9"/>
<rect x="7.5" y="14" width="5" height="5" rx="1" fill="#D9D9D9"/>
<rect x="7.5" y="21" width="5" height="5" rx="1" fill="#D9D9D9"/>
<rect x="14.5" width="5" height="5" rx="1" fill="#D9D9D9"/>
<rect x="14.5" y="7" width="5" height="5" rx="1" fill="#D9D9D9"/>
<rect x="14.5" y="14" width="5" height="5" rx="1" fill="#D9D9D9"/>
<rect x="14.5" y="21" width="5" height="5" rx="1" fill="#D9D9D9"/>
<rect x="21.5" width="5" height="5" rx="1" fill="#D9D9D9"/>
<rect x="21.5" y="7" width="5" height="5" rx="1" fill="#D9D9D9"/>
<rect x="21.5" y="14" width="5" height="5" rx="1" fill="#002CFB"/>
<rect x="28.5" width="5" height="5" rx="1" fill="#D9D9D9"/>
<rect x="28.5" y="7" width="5" height="5" rx="1" fill="#D9D9D9"/>
<rect x="28.5" y="14" width="5" height="5" rx="1" fill="#D9D9D9"/>
</svg>
