<svg width="16" height="16" viewBox="0 0 16 16" fill="none" xmlns="http://www.w3.org/2000/svg">
<path fill-rule="evenodd" clip-rule="evenodd" d="M8 15C11.866 15 15 11.866 15 8C15 4.13401 11.866 1 8 1C4.13401 1 1 4.13401 1 8C1 11.866 4.13401 15 8 15ZM8 3C8.55228 3 9 3.44772 9 4V9C9 9.55228 8.55229 10 8 10C7.44772 10 7 9.55229 7 9L7 4C7 3.44772 7.44772 3 8 3ZM8 13C8.60751 13 9.1 12.5523 9.1 12C9.1 11.4477 8.60751 11 8 11C7.39249 11 6.9 11.4477 6.9 12C6.9 12.5523 7.39249 13 8 13Z" fill="#E10D0D"/>
</svg>
