<svg width="16" height="16" viewBox="0 0 16 16" fill="none" xmlns="http://www.w3.org/2000/svg">
<path fill-rule="evenodd" clip-rule="evenodd" d="M12.6479 4H3.35208L7.30663 6.63636C7.7265 6.91628 8.2735 6.91628 8.69338 6.63636L12.6479 4ZM2.5 5.23472V11.5C2.5 11.7761 2.72386 12 3 12H13C13.2761 12 13.5 11.7761 13.5 11.5V5.23472L9.52543 7.88444C8.6017 8.50025 7.3983 8.50025 6.47458 7.88444L2.5 5.23472ZM15 4.5C15 3.39543 14.1046 2.5 13 2.5H3C1.89543 2.5 1 3.39543 1 4.5V11.5C1 12.6046 1.89543 13.5 3 13.5H13C14.1046 13.5 15 12.6046 15 11.5V4.5Z" fill="#ADBFDF"/>
</svg>
