<svg width="16" height="16" viewBox="0 0 16 16" fill="none" xmlns="http://www.w3.org/2000/svg">
<path d="M12 14.0003H4C3.44772 14.0003 2.97879 13.5459 3.09433 13.0058C3.46483 11.2739 4.95206 10.667 8 10.667C11.0479 10.667 12.5352 11.2739 12.9057 13.0058C13.0212 13.5459 12.5523 14.0003 12 14.0003Z" stroke="#ADBFDF" stroke-width="1.6" stroke-linejoin="round"/>
<path d="M10.6667 6C10.6667 7.47276 9.47275 8.66667 8 8.66667C6.52724 8.66667 5.33333 7.47276 5.33333 6M4 5.33333C4 5.33333 6.41635 5.66667 8 5.66667C9.58364 5.66667 12 5.5 12 5.5M11 5.33333C11 3.86057 9.47275 2.66667 8 2.66667C6.52724 2.66667 5 3.86057 5 5.33333M8 2V3.33333" stroke="#ADBFDF" stroke-width="1.6" stroke-linecap="round"/>
</svg>
