<svg width="16" height="16" viewBox="0 0 16 16" fill="none" xmlns="http://www.w3.org/2000/svg">
<g clip-path="url(#clip0_1876_33875)">
<path fill-rule="evenodd" clip-rule="evenodd" d="M11.8183 4.18162C13.9272 6.29046 13.9272 9.70954 11.8183 11.8184C9.7095 13.9272 6.29041 13.9272 4.18158 11.8184C2.07275 9.70955 2.07275 6.29045 4.18158 4.18162C6.29041 2.07279 9.7095 2.07279 11.8183 4.18162ZM12.9497 3.05025C15.6834 5.78392 15.6834 10.2161 12.9497 12.9497C10.216 15.6834 5.78388 15.6834 3.05021 12.9497C0.316541 10.2161 0.316541 5.78392 3.05021 3.05025C5.78388 0.316582 10.216 0.316583 12.9497 3.05025ZM5.16662 8.75H7.24995L7.24995 10.8333C7.24995 11.1095 7.47381 11.3333 7.74995 11.3333L8.24995 11.3333C8.5261 11.3333 8.74995 11.1095 8.74995 10.8333V8.75L10.8333 8.75C11.1094 8.75 11.3333 8.52615 11.3333 8.25V7.75C11.3333 7.47386 11.1094 7.25 10.8333 7.25H8.74995L8.74995 5.16667C8.74996 4.89053 8.5261 4.66667 8.24995 4.66667L7.74995 4.66667C7.47381 4.66667 7.24995 4.89053 7.24995 5.16667V7.25H5.16662C4.89048 7.25 4.66662 7.47386 4.66662 7.75V8.25C4.66662 8.52615 4.89048 8.75 5.16662 8.75Z" fill="#002CFB"/>
</g>
<defs>
<clipPath id="clip0_1876_33875">
<rect width="16" height="16" fill="white"/>
</clipPath>
</defs>
</svg>
