<svg width="16" height="16" viewBox="0 0 16 16" fill="none" xmlns="http://www.w3.org/2000/svg">
<path fill-rule="evenodd" clip-rule="evenodd" d="M4.14532 6.36505L6.41298 8.64599C6.52633 8.76 6.52966 8.94309 6.42052 9.06115L5.71378 9.82566C5.59794 9.95097 5.40105 9.95455 5.28074 9.83353L1.21028 5.73923C1.09395 5.62222 1.09395 5.43322 1.21028 5.31621L5.28074 1.22192C5.40105 1.1009 5.59794 1.10447 5.71378 1.22978L6.42052 1.9943C6.52966 2.11235 6.52633 2.29545 6.41298 2.40946L4.14532 4.69039H10.0582C12.7875 4.69039 15 6.99828 15 9.8452C15 12.6921 12.7875 15 10.0582 15H5.80136C5.63568 15 5.50136 14.8657 5.50136 14.7V13.6253C5.50136 13.4597 5.63568 13.3253 5.80136 13.3253H10.0582C11.9008 13.3253 13.3946 11.7672 13.3946 9.8452C13.3946 7.92317 11.9008 6.36505 10.0582 6.36505H4.14532Z" fill="white"/>
</svg>
