<svg width="12" height="12" viewBox="0 0 12 12" fill="none" xmlns="http://www.w3.org/2000/svg">
<path fill-rule="evenodd" clip-rule="evenodd" d="M2.89124 9.94143L8.82243 4.01019L8.82243 8.21755C8.82243 8.32799 8.91195 8.41752 9.02239 8.41752H9.80004C9.91047 8.41752 10 8.32799 10 8.21755V2.19996C10 2.08953 9.91047 2 9.80004 2H3.7825C3.67206 2 3.58254 2.08953 3.58254 2.19996L3.58254 2.97762C3.58254 3.08805 3.67206 3.17758 3.7825 3.17758L7.9897 3.17758L2.05857 9.10876C1.98048 9.18685 1.98048 9.31346 2.05857 9.39155L2.60845 9.94143C2.68654 10.0195 2.81315 10.0195 2.89124 9.94143Z" fill="#002CFB"/>
</svg>
