<svg width="18" height="18" viewBox="0 0 18 18" fill="none" xmlns="http://www.w3.org/2000/svg">
<path d="M9 5.41111C9 5.24543 8.86569 5.11111 8.7 5.11111H8.15714C7.99146 5.11111 7.85714 5.24543 7.85714 5.41111V8.15606C7.85714 8.50731 8.04143 8.8328 8.34261 9.01353L10.6481 10.3969C10.7936 10.4842 10.9825 10.4336 11.0648 10.2851L11.3595 9.75354C11.4378 9.61213 11.3901 9.43404 11.2514 9.35085L9.14565 8.08739C9.05529 8.03317 9 7.93552 9 7.83014V5.41111ZM8.57143 1.5C6.86647 1.5 5.23133 2.18482 4.02574 3.40381C2.82015 4.62279 2.14286 6.27609 2.14286 8H0.709881C0.444671 8 0.309907 8.31889 0.494741 8.50908L2.61557 10.6914C2.73256 10.8118 2.92556 10.8127 3.04375 10.6935L5.20743 8.51122C5.39517 8.32186 5.26104 8 4.99439 8H3.57143C3.57143 6.65918 4.09821 5.37328 5.03589 4.42518C5.97358 3.47708 7.24535 2.94444 8.57143 2.94444C9.89751 2.94444 11.1693 3.47708 12.107 4.42518C13.0446 5.37328 13.5714 6.65918 13.5714 8C13.5714 9.34082 13.0446 10.6267 12.107 11.5748C11.1693 12.5229 9.89751 13.0556 8.57143 13.0556C7.30176 13.0556 6.14116 12.5716 5.2626 11.7786C5.1383 11.6664 4.94646 11.6652 4.82871 11.7843L4.23657 12.383C4.12123 12.4997 4.12047 12.6879 4.24063 12.7995C5.38285 13.8611 6.89183 14.5 8.57143 14.5C10.2764 14.5 11.9115 13.8152 13.1171 12.5962C14.3227 11.3772 15 9.72391 15 8C15 6.27609 14.3227 4.62279 13.1171 3.40381C11.9115 2.18482 10.2764 1.5 8.57143 1.5Z" fill="#FFFF"/>
</svg>
