<svg width="16" height="16" viewBox="0 0 16 16" fill="none" xmlns="http://www.w3.org/2000/svg">
<path fill-rule="evenodd" clip-rule="evenodd" d="M11.0685 7.19987L8.62462 4.75601C8.50746 4.63885 8.50746 4.4489 8.62462 4.33175L9.33172 3.62464C9.44888 3.50748 9.63883 3.50748 9.75599 3.62464L13.9191 7.78773C14.0362 7.90489 14.0362 8.09484 13.9191 8.212L9.75599 12.3751C9.63883 12.4922 9.44888 12.4922 9.33172 12.3751L8.62461 11.668C8.50746 11.5508 8.50746 11.3609 8.62461 11.2437L11.0685 8.79987L2.29984 8.79986C2.13416 8.79986 1.99984 8.66555 1.99984 8.49986L1.99984 7.49987C1.99984 7.33418 2.13416 7.19987 2.29984 7.19987L11.0685 7.19987Z" fill="#002CFB"/>
</svg>
