<svg width="16" height="16" viewBox="0 0 16 16" fill="none" xmlns="http://www.w3.org/2000/svg">
<path d="M1.8 8C1.8 4.57679 4.57187 1.8 7.993 1.8C11.4227 1.8 14.2 4.57835 14.2 8C14.2 11.4217 11.4227 14.2 7.993 14.2C4.57187 14.2 1.8 11.4232 1.8 8Z" stroke="#ADBFDF" stroke-width="1.6"/>
<path fill-rule="evenodd" clip-rule="evenodd" d="M7 4.8C7 4.63431 7.13431 4.5 7.3 4.5H8.2C8.36569 4.5 8.5 4.63431 8.5 4.8V7.50821C8.5 7.59724 8.53955 7.68167 8.60794 7.73867L10.9997 9.73178C11.127 9.83785 11.1442 10.027 11.0381 10.1543L10.4619 10.8457C10.3558 10.973 10.1667 10.9902 10.0394 10.8841L7.35982 8.65113C7.13182 8.46113 7 8.17969 7 7.88291V4.8Z" fill="#ADBFDF"/>
</svg>
