<svg width="16" height="16" viewBox="0 0 16 16" fill="none" xmlns="http://www.w3.org/2000/svg">
<path fill-rule="evenodd" clip-rule="evenodd" d="M7.99987 1C5.01361 1 2.59277 3.43671 2.59277 6.42296C2.59277 9.90245 4.49121 13.1213 7.54389 14.791L7.86099 14.9645C7.94753 15.0118 8.05221 15.0118 8.13874 14.9645L8.45584 14.791C11.5085 13.1213 13.407 9.90245 13.407 6.42296C13.407 3.43671 10.9861 1 7.99987 1ZM7.99987 8.72444C9.27969 8.72444 10.3172 7.68694 10.3172 6.40712C10.3172 5.12729 9.27969 4.08979 7.99987 4.08979C6.72004 4.08979 5.68254 5.12729 5.68254 6.40712C5.68254 7.68694 6.72004 8.72444 7.99987 8.72444Z" fill="#002CFB"/>
</svg>
