<svg width="24" height="24" viewBox="0 0 24 24" fill="none" xmlns="http://www.w3.org/2000/svg">
<path d="M11.0852 5.35281L10.2797 5.94539C10.0997 5.70069 10.0406 5.38742 10.1193 5.09399C10.1979 4.80056 10.4056 4.55878 10.6839 4.43687L11.0852 5.35281ZM5 13.9999C5 17.8659 8.13401 20.9999 12 20.9999V22.9999C7.02944 22.9999 3 18.9704 3 13.9999H5ZM12 20.9999C15.866 20.9999 19 17.8659 19 13.9999H21C21 18.9704 16.9706 22.9999 12 22.9999V20.9999ZM19 13.9999C19 10.1339 15.866 6.99986 12 6.99986V4.99986C16.9706 4.99986 21 9.0293 21 13.9999H19ZM7.62547 8.53474C6.02312 9.81923 5 11.7897 5 13.9999H3C3 11.1572 4.31903 8.62199 6.37453 6.97424L7.62547 8.53474ZM17.3514 3.69915L11.4865 6.26875L10.6839 4.43687L16.5488 1.86726L17.3514 3.69915ZM11.8907 4.76023L15.6851 9.91803L14.074 11.1032L10.2797 5.94539L11.8907 4.76023Z" fill="#002CFB"/>
</svg>
