<svg width="16" height="16" viewBox="0 0 16 16" fill="none" xmlns="http://www.w3.org/2000/svg">
<path d="M8.92179 9.27286H3.0127V8.02286H8.92179C9.46724 8.02286 9.918 7.92816 10.2741 7.73877C10.6301 7.54559 10.8953 7.28422 11.0695 6.95468C11.2438 6.62135 11.3309 6.24256 11.3309 5.81832C11.3309 5.39407 11.2438 5.01718 11.0695 4.68763C10.8953 4.3543 10.6301 4.09294 10.2741 3.90354C9.918 3.71036 9.46724 3.61377 8.92179 3.61377H6.2627V14.0001H4.8536V2.36377H8.92179C9.78542 2.36377 10.4975 2.52097 11.0582 2.83536C11.6188 3.14975 12.0354 3.56832 12.3082 4.09104C12.5809 4.61377 12.7172 5.18953 12.7172 5.81832C12.7172 6.4471 12.5809 7.02286 12.3082 7.54559C12.0354 8.06832 11.6188 8.48688 11.0582 8.80127C10.4975 9.11566 9.78542 9.27286 8.92179 9.27286ZM8.83088 10.3638V11.6138H3.0127V10.3638H8.83088Z" fill="#ADBFDF"/>
</svg>
