<svg width="32" height="32" viewBox="0 0 32 32" fill="none" xmlns="http://www.w3.org/2000/svg">
<g clip-path="url(#clip0_2090_53403)">
<path d="M26.1049 29.1379C26.2425 29.6728 26.7876 29.9949 27.3225 29.8574C27.8574 29.7198 28.1795 29.1747 28.0419 28.6399L26.1049 29.1379ZM3.95807 28.6399C3.82053 29.1747 4.14264 29.7198 4.67753 29.8574C5.21242 29.9949 5.75752 29.6728 5.89506 29.1379L3.95807 28.6399ZM5.01873 29.7976L5.47272 28.9066L5.01873 29.7976ZM2.2024 26.9813L3.09341 26.5273L2.2024 26.9813ZM29.7976 26.9813L28.9066 26.5273L29.7976 26.9813ZM26.9813 29.7976L26.5273 28.9066L26.9813 29.7976ZM26.9813 2.2024L26.5273 3.09341L26.9813 2.2024ZM29.7976 5.01873L28.9066 5.47272L29.7976 5.01873ZM5.01873 2.2024L5.47272 3.09341L5.01873 2.2024ZM2.2024 5.01873L3.09341 5.47272L2.2024 5.01873ZM22.0486 14.9931C22.0486 18.3336 19.3406 21.0417 16 21.0417V23.0417C20.4451 23.0417 24.0486 19.4382 24.0486 14.9931H22.0486ZM16 21.0417C12.6594 21.0417 9.95139 18.3336 9.95139 14.9931H7.95139C7.95139 19.4382 11.5549 23.0417 16 23.0417V21.0417ZM9.95139 14.9931C9.95139 11.6525 12.6594 8.94444 16 8.94444V6.94444C11.5549 6.94444 7.95139 10.5479 7.95139 14.9931H9.95139ZM16 8.94444C19.3406 8.94444 22.0486 11.6525 22.0486 14.9931H24.0486C24.0486 10.5479 20.4451 6.94444 16 6.94444V8.94444ZM28.0419 28.6399C26.8859 24.1439 21.7703 21.0417 16 21.0417V23.0417C21.2177 23.0417 25.2549 25.8322 26.1049 29.1379L28.0419 28.6399ZM5.89506 29.1379C6.74506 25.8322 10.7823 23.0417 16 23.0417V21.0417C10.2297 21.0417 5.11413 24.1439 3.95807 28.6399L5.89506 29.1379ZM11.8111 2.5H20.1889V0.5H11.8111V2.5ZM29.5 11.8111V20.1889H31.5V11.8111H29.5ZM20.1889 29.5H11.8111V31.5H20.1889V29.5ZM2.5 20.1889V11.8111H0.5V20.1889H2.5ZM11.8111 29.5C9.99 29.5 8.6843 29.4992 7.65984 29.4155C6.64706 29.3328 5.99752 29.174 5.47272 28.9066L4.56474 30.6886C5.41848 31.1236 6.36052 31.316 7.49698 31.4089C8.62177 31.5008 10.023 31.5 11.8111 31.5V29.5ZM0.5 20.1889C0.5 21.977 0.499222 23.3782 0.591121 24.503C0.683974 25.6395 0.876394 26.5815 1.3114 27.4353L3.09341 26.5273C2.82601 26.0025 2.66723 25.3529 2.58448 24.3402C2.50078 23.3157 2.5 22.01 2.5 20.1889H0.5ZM5.47272 28.9066C4.44828 28.3846 3.61539 27.5517 3.09341 26.5273L1.3114 27.4353C2.02512 28.836 3.16398 29.9749 4.56474 30.6886L5.47272 28.9066ZM29.5 20.1889C29.5 22.01 29.4992 23.3157 29.4155 24.3402C29.3328 25.3529 29.174 26.0025 28.9066 26.5273L30.6886 27.4353C31.1236 26.5815 31.316 25.6395 31.4089 24.503C31.5008 23.3782 31.5 21.977 31.5 20.1889H29.5ZM20.1889 31.5C21.977 31.5 23.3782 31.5008 24.503 31.4089C25.6395 31.316 26.5815 31.1236 27.4353 30.6886L26.5273 28.9066C26.0025 29.174 25.3529 29.3328 24.3402 29.4155C23.3157 29.4992 22.01 29.5 20.1889 29.5V31.5ZM28.9066 26.5273C28.3846 27.5517 27.5517 28.3846 26.5273 28.9066L27.4353 30.6886C28.836 29.9749 29.9749 28.836 30.6886 27.4353L28.9066 26.5273ZM20.1889 2.5C22.01 2.5 23.3157 2.50078 24.3402 2.58448C25.3529 2.66723 26.0025 2.82601 26.5273 3.09341L27.4353 1.3114C26.5815 0.876394 25.6395 0.683974 24.503 0.591121C23.3782 0.499222 21.977 0.5 20.1889 0.5V2.5ZM31.5 11.8111C31.5 10.023 31.5008 8.62177 31.4089 7.49698C31.316 6.36052 31.1236 5.41848 30.6886 4.56474L28.9066 5.47272C29.174 5.99752 29.3328 6.64706 29.4155 7.65984C29.4992 8.6843 29.5 9.99 29.5 11.8111H31.5ZM26.5273 3.09341C27.5517 3.61539 28.3846 4.44828 28.9066 5.47272L30.6886 4.56474C29.9749 3.16398 28.836 2.02512 27.4353 1.3114L26.5273 3.09341ZM11.8111 0.5C10.023 0.5 8.62177 0.499222 7.49698 0.591121C6.36052 0.683974 5.41848 0.876394 4.56474 1.3114L5.47272 3.09341C5.99752 2.82601 6.64706 2.66723 7.65984 2.58448C8.6843 2.50078 9.99 2.5 11.8111 2.5V0.5ZM2.5 11.8111C2.5 9.99 2.50078 8.6843 2.58448 7.65984C2.66723 6.64706 2.82601 5.99752 3.09341 5.47272L1.3114 4.56474C0.876394 5.41848 0.683974 6.36052 0.591121 7.49698C0.499222 8.62177 0.5 10.023 0.5 11.8111H2.5ZM4.56474 1.3114C3.16398 2.02512 2.02512 3.16398 1.3114 4.56474L3.09341 5.47272C3.61539 4.44828 4.44828 3.61539 5.47272 3.09341L4.56474 1.3114Z" fill="#8C8C8C"/>
</g>
<defs>
<clipPath id="clip0_2090_53403">
<rect width="32" height="32" rx="4" fill="white"/>
</clipPath>
</defs>
</svg>
